<svg width="50" height="53" viewBox="0 0 50 53" fill="none" xmlns="http://www.w3.org/2000/svg">
<g clip-path="url(#clip0_2204_2)">
<path d="M47.9168 17.7549H2.08321C0.933457 17.7549 0 18.7443 0 19.9631V46.3749C0 50.0275 2.80418 52.9999 6.25 52.9999H43.75C47.1958 52.9999 50 50.0275 50 46.3749V19.9631C50 18.7443 49.0665 17.7549 47.9168 17.7549Z" fill="#ECEFF1"/>
<path d="M43.75 6.625H6.25C2.79808 6.625 0 9.59097 0 13.25V19.9632H50V13.25C50 9.59097 47.2019 6.625 43.75 6.625Z" fill="#2196F3"/>
<path d="M12.5 0H10.4168C9.26665 0 8.33319 0.989464 8.33319 2.2082V11.0418C8.33319 12.2605 9.26665 13.25 10.4168 13.25H12.5C13.6501 13.25 14.5832 12.2605 14.5832 11.0418V2.2082C14.5832 0.989464 13.6501 0 12.5 0Z" fill="#1976D2"/>
<path d="M39.5832 0H37.5C36.3499 0 35.4168 0.989464 35.4168 2.2082V11.0418C35.4168 12.2605 36.3499 13.25 37.5 13.25H39.5832C40.7333 13.25 41.6668 12.2605 41.6668 11.0418V2.2082C41.6668 0.989464 40.7333 0 39.5832 0Z" fill="#1976D2"/>
<path d="M22.9168 44.1668C22.8645 44.1668 22.8104 44.1644 22.7585 44.1599C22.152 44.1114 21.5958 43.7847 21.2376 43.2635L15.5083 34.9822C14.8293 33.9996 15.0292 32.6171 15.9561 31.895C16.8835 31.1728 18.1873 31.3871 18.8686 32.3697L23.1625 38.5754L33.4252 27.6969C34.2396 26.8336 35.5564 26.8336 36.3709 27.6969C37.1853 28.5602 37.1853 29.9561 36.3709 30.8194L24.3916 43.5174C23.9979 43.9371 23.4665 44.1668 22.9168 44.1668Z" fill="#2196F3"/>
</g>
<defs>
<clipPath id="clip0_2204_2">
<rect width="50" height="53" fill="white"/>
</clipPath>
</defs>
</svg>
