<svg width="252" height="262" viewBox="0 0 252 262" fill="none" xmlns="http://www.w3.org/2000/svg">
<g clip-path="url(#clip0_103_7)">
<g filter="url(#filter0_f_103_7)">
<path d="M126.872 40.7207V236.824" stroke="#42A0F0" stroke-width="10" stroke-linecap="round"/>
<path d="M126.479 88.6579L160.252 53.7949" stroke="#42A0F0" stroke-width="10" stroke-linecap="round"/>
<path d="M126.48 88.6579L91.6172 53.7949" stroke="#42A0F0" stroke-width="10" stroke-linecap="round"/>
<path d="M126.479 193.246L160.252 228.109" stroke="#42A0F0" stroke-width="10" stroke-linecap="round"/>
<path d="M126.48 193.246L91.6172 228.109" stroke="#42A0F0" stroke-width="10" stroke-linecap="round"/>
<path d="M211.318 90.5576L41.4883 188.609" stroke="#42A0F0" stroke-width="10" stroke-linecap="round"/>
<path d="M169.609 114.186L216.687 126.003" stroke="#42A0F0" stroke-width="10" stroke-linecap="round"/>
<path d="M169.607 114.186L182.368 66.5625" stroke="#42A0F0" stroke-width="10" stroke-linecap="round"/>
<path d="M79.0323 166.48L65.7266 213.16" stroke="#42A0F0" stroke-width="10" stroke-linecap="round"/>
<path d="M79.032 166.48L31.4082 153.72" stroke="#42A0F0" stroke-width="10" stroke-linecap="round"/>
<path d="M210.384 188.609L40.5537 90.5579" stroke="#42A0F0" stroke-width="10" stroke-linecap="round"/>
<path d="M169.064 164.301L182.369 210.981" stroke="#42A0F0" stroke-width="10" stroke-linecap="round"/>
<path d="M169.064 164.301L216.687 151.54" stroke="#42A0F0" stroke-width="10" stroke-linecap="round"/>
<path d="M78.489 112.008L31.4102 123.825" stroke="#42A0F0" stroke-width="10" stroke-linecap="round"/>
<path d="M78.4892 112.008L65.7285 64.3839" stroke="#42A0F0" stroke-width="10" stroke-linecap="round"/>
</g>
<g filter="url(#filter1_f_103_7)">
<path d="M54.8643 1.5V14.894" stroke="#42A0F0" stroke-linecap="round"/>
<path d="M54.5742 4.76771L56.7532 3.67871" stroke="#42A0F0" stroke-linecap="round"/>
<path d="M54.5746 4.76771L51.3066 3.67871" stroke="#42A0F0" stroke-linecap="round"/>
<path d="M54.5742 12.3945L56.7532 13.4835" stroke="#42A0F0" stroke-linecap="round"/>
<path d="M54.5746 12.3945L51.3066 13.4835" stroke="#42A0F0" stroke-linecap="round"/>
<path d="M60.6327 4.9043L49.0332 11.6013" stroke="#42A0F0" stroke-linecap="round"/>
<path d="M57.7832 6.5177L60.9987 7.32512" stroke="#42A0F0" stroke-linecap="round"/>
<path d="M57.7832 6.51813L58.6547 3.26562" stroke="#42A0F0" stroke-linecap="round"/>
<path d="M51.596 10.0898L50.6875 13.2783" stroke="#42A0F0" stroke-linecap="round"/>
<path d="M51.5964 10.0904L48.3438 9.21887" stroke="#42A0F0" stroke-linecap="round"/>
<path d="M60.5684 11.6006L48.9688 4.90356" stroke="#42A0F0" stroke-linecap="round"/>
<path d="M57.7461 9.94031L58.6546 13.1287" stroke="#42A0F0" stroke-linecap="round"/>
<path d="M57.7461 9.94084L60.9986 9.06934" stroke="#42A0F0" stroke-linecap="round"/>
<path d="M51.5592 6.36816L48.3438 7.17558" stroke="#42A0F0" stroke-linecap="round"/>
<path d="M51.559 6.3686L50.6875 3.11609" stroke="#42A0F0" stroke-linecap="round"/>
</g>
<g filter="url(#filter2_f_103_7)">
<path d="M239.65 31.1553V54.1153" stroke="#42A0F0" stroke-linecap="round"/>
<path d="M238.693 36.3634L243.051 35.2744" stroke="#42A0F0" stroke-linecap="round"/>
<path d="M238.694 36.3634L233.247 35.2744" stroke="#42A0F0" stroke-linecap="round"/>
<path d="M238.693 49.4375L243.051 51.6165" stroke="#42A0F0" stroke-linecap="round"/>
<path d="M238.694 49.4375L233.247 51.6165" stroke="#42A0F0" stroke-linecap="round"/>
<path d="M249.536 36.9902L229.652 48.4702" stroke="#42A0F0" stroke-linecap="round"/>
<path d="M244.652 39.7568L250.164 41.1401" stroke="#42A0F0" stroke-linecap="round"/>
<path d="M244.652 39.7568L246.146 34.1807" stroke="#42A0F0" stroke-linecap="round"/>
<path d="M234.048 45.8789L232.49 51.3442" stroke="#42A0F0" stroke-linecap="round"/>
<path d="M234.049 45.8788L228.473 44.3846" stroke="#42A0F0" stroke-linecap="round"/>
<path d="M249.429 48.4717L229.545 36.9917" stroke="#42A0F0" stroke-linecap="round"/>
<path d="M244.591 45.625L246.149 51.0903" stroke="#42A0F0" stroke-linecap="round"/>
<path d="M244.591 45.625L250.167 44.1309" stroke="#42A0F0" stroke-linecap="round"/>
<path d="M233.986 39.5029L228.474 40.8862" stroke="#42A0F0" stroke-linecap="round"/>
<path d="M233.985 39.5029L232.491 33.9268" stroke="#42A0F0" stroke-linecap="round"/>
</g>
<g filter="url(#filter3_f_103_7)">
<path d="M225.509 200.022V218.872" stroke="#42A0F0" stroke-linecap="round"/>
<path d="M224.532 204.141L227.8 203.052" stroke="#42A0F0" stroke-linecap="round"/>
<path d="M224.532 204.141L220.174 203.052" stroke="#42A0F0" stroke-linecap="round"/>
<path d="M224.532 215.035L227.8 217.214" stroke="#42A0F0" stroke-linecap="round"/>
<path d="M224.532 215.035L220.174 217.214" stroke="#42A0F0" stroke-linecap="round"/>
<path d="M233.626 204.813L217.301 214.238" stroke="#42A0F0" stroke-linecap="round"/>
<path d="M229.617 207.085L234.142 208.22" stroke="#42A0F0" stroke-linecap="round"/>
<path d="M229.617 207.084L230.844 202.507" stroke="#42A0F0" stroke-linecap="round"/>
<path d="M220.91 212.111L219.631 216.598" stroke="#42A0F0" stroke-linecap="round"/>
<path d="M220.911 212.111L216.333 210.884" stroke="#42A0F0" stroke-linecap="round"/>
<path d="M233.536 214.238L217.212 204.813" stroke="#42A0F0" stroke-linecap="round"/>
<path d="M229.564 211.902L230.843 216.388" stroke="#42A0F0" stroke-linecap="round"/>
<path d="M229.564 211.901L234.142 210.675" stroke="#42A0F0" stroke-linecap="round"/>
<path d="M220.857 206.876L216.332 208.012" stroke="#42A0F0" stroke-linecap="round"/>
<path d="M220.858 206.876L219.631 202.298" stroke="#42A0F0" stroke-linecap="round"/>
</g>
<g filter="url(#filter4_f_103_7)">
<path d="M70.7139 243.6V260.205" stroke="#42A0F0" stroke-linecap="round"/>
<path d="M69.8262 247.718L73.0942 246.629" stroke="#42A0F0" stroke-linecap="round"/>
<path d="M69.8266 247.718L66.5586 246.629" stroke="#42A0F0" stroke-linecap="round"/>
<path d="M69.8262 256.434L73.0942 258.613" stroke="#42A0F0" stroke-linecap="round"/>
<path d="M69.8266 256.434L66.5586 258.613" stroke="#42A0F0" stroke-linecap="round"/>
<path d="M77.8648 247.819L63.4844 256.122" stroke="#42A0F0" stroke-linecap="round"/>
<path d="M74.332 249.821L78.3185 250.822" stroke="#42A0F0" stroke-linecap="round"/>
<path d="M74.333 249.821L75.4135 245.788" stroke="#42A0F0" stroke-linecap="round"/>
<path d="M66.6636 254.248L65.5371 258.201" stroke="#42A0F0" stroke-linecap="round"/>
<path d="M66.6634 254.248L62.6309 253.167" stroke="#42A0F0" stroke-linecap="round"/>
<path d="M77.7866 256.121L63.4062 247.819" stroke="#42A0F0" stroke-linecap="round"/>
<path d="M74.2871 254.063L75.4137 258.016" stroke="#42A0F0" stroke-linecap="round"/>
<path d="M74.2881 254.063L78.3206 252.982" stroke="#42A0F0" stroke-linecap="round"/>
<path d="M66.6174 249.636L62.6309 250.637" stroke="#42A0F0" stroke-linecap="round"/>
<path d="M66.6177 249.636L65.5371 245.603" stroke="#42A0F0" stroke-linecap="round"/>
</g>
<g filter="url(#filter5_f_103_7)">
<path d="M8.05664 173.874V187.342" stroke="#42A0F0" stroke-linecap="round"/>
<path d="M7.72754 176.903L9.90654 175.814" stroke="#42A0F0" stroke-linecap="round"/>
<path d="M7.72796 176.903L4.45996 175.814" stroke="#42A0F0" stroke-linecap="round"/>
<path d="M7.72754 184.529L9.90654 185.618" stroke="#42A0F0" stroke-linecap="round"/>
<path d="M7.72796 184.529L4.45996 185.618" stroke="#42A0F0" stroke-linecap="round"/>
<path d="M13.8551 177.297L2.19141 184.031" stroke="#42A0F0" stroke-linecap="round"/>
<path d="M10.9912 178.92L14.224 179.731" stroke="#42A0F0" stroke-linecap="round"/>
<path d="M10.9912 178.92L11.8675 175.649" stroke="#42A0F0" stroke-linecap="round"/>
<path d="M4.77022 182.511L3.85645 185.716" stroke="#42A0F0" stroke-linecap="round"/>
<path d="M4.77026 182.511L1.5 181.635" stroke="#42A0F0" stroke-linecap="round"/>
<path d="M13.7916 184.03L2.12793 177.296" stroke="#42A0F0" stroke-linecap="round"/>
<path d="M10.9541 182.362L11.8678 185.567" stroke="#42A0F0" stroke-linecap="round"/>
<path d="M10.9541 182.362L14.2244 181.485" stroke="#42A0F0" stroke-linecap="round"/>
<path d="M4.73375 178.77L1.50098 179.581" stroke="#42A0F0" stroke-linecap="round"/>
<path d="M4.73368 178.77L3.85742 175.499" stroke="#42A0F0" stroke-linecap="round"/>
</g>
</g>
<defs>
<filter id="filter0_f_103_7" x="22.4072" y="31.7207" width="203.281" height="214.103" filterUnits="userSpaceOnUse" color-interpolation-filters="sRGB">
<feFlood flood-opacity="0" result="BackgroundImageFix"/>
<feBlend mode="normal" in="SourceGraphic" in2="BackgroundImageFix" result="shape"/>
<feGaussianBlur stdDeviation="2" result="effect1_foregroundBlur_103_7"/>
</filter>
<filter id="filter1_f_103_7" x="46.8438" y="0" width="15.6553" height="16.394" filterUnits="userSpaceOnUse" color-interpolation-filters="sRGB">
<feFlood flood-opacity="0" result="BackgroundImageFix"/>
<feBlend mode="normal" in="SourceGraphic" in2="BackgroundImageFix" result="shape"/>
<feGaussianBlur stdDeviation="0.5" result="effect1_foregroundBlur_103_7"/>
</filter>
<filter id="filter2_f_103_7" x="226.973" y="29.6553" width="24.6943" height="25.96" filterUnits="userSpaceOnUse" color-interpolation-filters="sRGB">
<feFlood flood-opacity="0" result="BackgroundImageFix"/>
<feBlend mode="normal" in="SourceGraphic" in2="BackgroundImageFix" result="shape"/>
<feGaussianBlur stdDeviation="0.5" result="effect1_foregroundBlur_103_7"/>
</filter>
<filter id="filter3_f_103_7" x="214.832" y="198.522" width="20.8105" height="21.8501" filterUnits="userSpaceOnUse" color-interpolation-filters="sRGB">
<feFlood flood-opacity="0" result="BackgroundImageFix"/>
<feBlend mode="normal" in="SourceGraphic" in2="BackgroundImageFix" result="shape"/>
<feGaussianBlur stdDeviation="0.5" result="effect1_foregroundBlur_103_7"/>
</filter>
<filter id="filter4_f_103_7" x="61.1309" y="242.1" width="18.6895" height="19.605" filterUnits="userSpaceOnUse" color-interpolation-filters="sRGB">
<feFlood flood-opacity="0" result="BackgroundImageFix"/>
<feBlend mode="normal" in="SourceGraphic" in2="BackgroundImageFix" result="shape"/>
<feGaussianBlur stdDeviation="0.5" result="effect1_foregroundBlur_103_7"/>
</filter>
<filter id="filter5_f_103_7" x="0" y="172.374" width="15.7246" height="16.468" filterUnits="userSpaceOnUse" color-interpolation-filters="sRGB">
<feFlood flood-opacity="0" result="BackgroundImageFix"/>
<feBlend mode="normal" in="SourceGraphic" in2="BackgroundImageFix" result="shape"/>
<feGaussianBlur stdDeviation="0.5" result="effect1_foregroundBlur_103_7"/>
</filter>
<clipPath id="clip0_103_7">
<rect width="252" height="262" fill="white"/>
</clipPath>
</defs>
</svg>
