<svg width="392" height="335" viewBox="0 0 392 335" fill="none" xmlns="http://www.w3.org/2000/svg">
<g clip-path="url(#clip0_103_122)">
<g filter="url(#filter0_f_103_122)">
<path d="M123.668 203.237C124.196 203.72 113.128 227.528 106.696 234.927C100.264 242.327 92.3508 245.981 89.024 243.089C85.6973 240.197 88.2143 231.854 94.6463 224.455C101.079 217.056 123.138 202.754 123.668 203.237Z" fill="#42A0F0"/>
<path d="M95.7922 229.425C96.4384 230.459 98.6754 230.227 100.788 228.906C102.901 227.586 104.091 225.677 103.444 224.643C102.798 223.609 100.561 223.841 98.4485 225.162C96.3352 226.482 95.146 228.391 95.7922 229.425Z" fill="white"/>
<path d="M191.668 203.237C192.196 203.72 181.128 227.528 174.696 234.927C168.264 242.327 160.351 245.981 157.024 243.089C153.698 240.197 156.215 231.854 162.647 224.455C169.079 217.056 191.138 202.754 191.668 203.237Z" fill="#42A0F0"/>
<path d="M163.792 229.425C164.438 230.459 166.675 230.227 168.788 228.906C170.901 227.586 172.091 225.677 171.444 224.643C170.798 223.609 168.561 223.841 166.448 225.162C164.335 226.482 163.145 228.391 163.792 229.425Z" fill="white"/>
<path d="M259.668 203.237C260.196 203.72 249.128 227.528 242.696 234.927C236.264 242.327 228.351 245.981 225.024 243.089C221.698 240.197 224.215 231.854 230.647 224.455C237.079 217.056 259.138 202.754 259.668 203.237Z" fill="#42A0F0"/>
<path d="M231.792 229.425C232.438 230.459 234.675 230.227 236.788 228.906C238.901 227.586 240.091 225.677 239.444 224.643C238.798 223.609 236.561 223.841 234.448 225.162C232.335 226.482 231.145 228.391 231.792 229.425Z" fill="white"/>
<path d="M199.668 253.237C200.196 253.72 189.128 277.528 182.696 284.927C176.264 292.327 168.351 295.981 165.024 293.089C161.698 290.197 164.215 281.854 170.647 274.455C177.079 267.056 199.138 252.754 199.668 253.237Z" fill="#42A0F0"/>
<path d="M171.792 279.425C172.438 280.459 174.675 280.227 176.788 278.906C178.901 277.586 180.091 275.677 179.444 274.643C178.798 273.609 176.561 273.841 174.448 275.162C172.335 276.482 171.145 278.391 171.792 279.425Z" fill="white"/>
<path d="M282.668 253.237C283.196 253.72 272.128 277.528 265.696 284.927C259.264 292.327 251.351 295.981 248.024 293.089C244.698 290.197 247.215 281.854 253.647 274.455C260.079 267.056 282.138 252.754 282.668 253.237Z" fill="#42A0F0"/>
<path d="M254.792 279.425C255.438 280.459 257.675 280.227 259.788 278.906C261.901 277.586 263.091 275.677 262.444 274.643C261.798 273.609 259.561 273.841 257.448 275.162C255.335 276.482 254.145 278.391 254.792 279.425Z" fill="white"/>
<path d="M222.668 289.237C223.196 289.72 212.128 313.528 205.696 320.927C199.264 328.327 191.351 331.981 188.024 329.089C184.698 326.197 187.215 317.854 193.647 310.455C200.079 303.056 222.138 288.754 222.668 289.237Z" fill="#42A0F0"/>
<path d="M194.792 315.425C195.438 316.459 197.675 316.227 199.788 314.906C201.901 313.586 203.091 311.677 202.444 310.643C201.798 309.609 199.561 309.841 197.448 311.162C195.335 312.482 194.145 314.391 194.792 315.425Z" fill="white"/>
<path d="M146.668 289.237C147.196 289.72 136.128 313.528 129.696 320.927C123.264 328.327 115.351 331.981 112.024 329.089C108.698 326.197 111.215 317.854 117.647 310.455C124.079 303.056 146.138 288.754 146.668 289.237Z" fill="#42A0F0"/>
<path d="M118.792 315.425C119.438 316.459 121.675 316.227 123.788 314.906C125.901 313.586 127.091 311.677 126.444 310.643C125.798 309.609 123.561 309.841 121.448 311.162C119.335 312.482 118.145 314.391 118.792 315.425Z" fill="white"/>
<path d="M123.668 253.237C124.196 253.72 113.128 277.528 106.696 284.927C100.264 292.327 92.3508 295.981 89.024 293.089C85.6973 290.197 88.2143 281.854 94.6463 274.455C101.079 267.056 123.138 252.754 123.668 253.237Z" fill="#42A0F0"/>
<path d="M95.7922 279.425C96.4384 280.459 98.6754 280.227 100.788 278.906C102.901 277.586 104.091 275.677 103.444 274.643C102.798 273.609 100.561 273.841 98.4485 275.162C96.3352 276.482 95.146 278.391 95.7922 279.425Z" fill="white"/>
</g>
<g filter="url(#filter1_df_103_122)">
<g filter="url(#filter2_d_103_122)">
<path d="M235.562 233.765C233.629 233.92 231.676 233.999 229.705 234H92.1812C82.7149 234.035 73.3348 232.201 64.579 228.603C55.8232 225.005 47.8639 219.714 41.1577 213.032C34.4516 206.351 29.1305 198.412 25.4997 189.669C21.869 180.927 20 171.554 20 162.087C20 152.621 21.869 143.248 25.4997 134.506C29.1305 125.763 34.4516 117.824 41.1577 111.143C47.8639 104.461 55.8232 99.17 64.579 95.5718C73.3348 91.9737 82.7149 90.1397 92.1812 90.175H143.457C160.081 53.6 198.368 28 242.941 28C302.768 28 351.268 74.115 351.268 131C351.268 187.885 302.768 234 242.941 234C240.461 234 238.001 233.922 235.562 233.765Z" fill="url(#paint0_linear_103_122)"/>
<path d="M242.941 233C250.227 233 257.508 232.302 264.582 230.926C271.475 229.585 278.255 227.584 284.734 224.978C291.095 222.42 297.229 219.254 302.968 215.568C308.651 211.917 313.995 207.725 318.851 203.107C323.707 198.49 328.115 193.411 331.953 188.009C335.827 182.557 339.154 176.728 341.842 170.686C344.579 164.532 346.682 158.093 348.09 151.547C349.536 144.831 350.269 137.917 350.269 131C350.269 124.082 349.536 117.169 348.09 110.452C346.682 103.906 344.579 97.4673 341.842 91.3142C339.154 85.2716 335.827 79.4433 331.953 73.991C328.115 68.5893 323.707 63.5095 318.851 58.8928C313.995 54.2752 308.651 50.0829 302.968 46.4323C297.229 42.7461 291.095 39.5801 284.734 37.0221C278.255 34.4165 271.475 32.4154 264.582 31.0742C257.508 29.6979 250.227 29 242.941 29C221.57 29 200.931 34.9523 183.255 46.2135C174.734 51.6418 167.078 58.1939 160.498 65.6878C153.876 73.2291 148.449 81.6069 144.367 90.5885L144.101 91.1747H143.457H92.1812C82.6077 91.1747 73.321 93.0495 64.5792 96.747C60.3776 98.5242 56.325 100.724 52.5341 103.285C48.7789 105.822 45.2477 108.735 42.0385 111.945C38.8293 115.154 35.9157 118.685 33.3788 122.44C30.8177 126.231 28.618 130.284 26.8408 134.485C23.1433 143.227 21.2686 152.514 21.2686 162.087C21.2686 171.661 23.1433 180.948 26.8408 189.689C28.618 193.891 30.8177 197.944 33.3788 201.735C35.9157 205.49 38.8293 209.021 42.0385 212.23C45.2477 215.439 48.7789 218.353 52.5341 220.89C56.325 223.451 60.3776 225.651 64.5792 227.428C73.321 231.125 82.6077 233 92.1812 233H229.706C231.629 233 233.572 232.922 235.483 232.768L235.555 232.762L235.627 232.767C238.046 232.922 240.507 233 242.941 233ZM242.941 234C240.462 234 238.001 233.921 235.563 233.765C233.632 233.92 231.676 234 229.706 234H92.1812C52.4651 234 20.2686 201.803 20.2686 162.087C20.2686 122.371 52.4651 90.1747 92.1812 90.1747H143.457C160.081 53.5954 198.366 28 242.941 28C302.769 28 351.269 74.1151 351.269 131C351.269 187.885 302.769 234 242.941 234Z" fill="white" fill-opacity="0.5"/>
</g>
</g>
</g>
<defs>
<filter id="filter0_f_103_122" x="83.5557" y="199.225" width="203.13" height="134.855" filterUnits="userSpaceOnUse" color-interpolation-filters="sRGB">
<feFlood flood-opacity="0" result="BackgroundImageFix"/>
<feBlend mode="normal" in="SourceGraphic" in2="BackgroundImageFix" result="shape"/>
<feGaussianBlur stdDeviation="2" result="effect1_foregroundBlur_103_122"/>
</filter>
<filter id="filter1_df_103_122" x="0" y="0" width="391.269" height="266" filterUnits="userSpaceOnUse" color-interpolation-filters="sRGB">
<feFlood flood-opacity="0" result="BackgroundImageFix"/>
<feColorMatrix in="SourceAlpha" type="matrix" values="0 0 0 0 0 0 0 0 0 0 0 0 0 0 0 0 0 0 127 0" result="hardAlpha"/>
<feOffset dx="10" dy="2"/>
<feGaussianBlur stdDeviation="15"/>
<feColorMatrix type="matrix" values="0 0 0 0 0.258824 0 0 0 0 0.627451 0 0 0 0 0.941176 0 0 0 0.596 0"/>
<feBlend mode="normal" in2="BackgroundImageFix" result="effect1_dropShadow_103_122"/>
<feBlend mode="normal" in="SourceGraphic" in2="effect1_dropShadow_103_122" result="shape"/>
<feGaussianBlur stdDeviation="2" result="effect2_foregroundBlur_103_122"/>
</filter>
<filter id="filter2_d_103_122" x="0" y="0" width="391.269" height="266" filterUnits="userSpaceOnUse" color-interpolation-filters="sRGB">
<feFlood flood-opacity="0" result="BackgroundImageFix"/>
<feColorMatrix in="SourceAlpha" type="matrix" values="0 0 0 0 0 0 0 0 0 0 0 0 0 0 0 0 0 0 127 0" result="hardAlpha"/>
<feOffset dx="10" dy="2"/>
<feGaussianBlur stdDeviation="15"/>
<feColorMatrix type="matrix" values="0 0 0 0 0.501961 0 0 0 0 0.501961 0 0 0 0 0.501961 0 0 0 0.302 0"/>
<feBlend mode="normal" in2="BackgroundImageFix" result="effect1_dropShadow_103_122"/>
<feBlend mode="normal" in="SourceGraphic" in2="effect1_dropShadow_103_122" result="shape"/>
</filter>
<linearGradient id="paint0_linear_103_122" x1="154.164" y1="53.9561" x2="220.206" y2="245.168" gradientUnits="userSpaceOnUse">
<stop stop-color="white" stop-opacity="0.596"/>
<stop offset="1" stop-color="#F7F7F7" stop-opacity="0.204"/>
</linearGradient>
<clipPath id="clip0_103_122">
<rect width="392" height="335" fill="white"/>
</clipPath>
</defs>
</svg>
